<?xml version="1.0" encoding="UTF-8" standalone="no"?>
<svg
   xmlns:dc="http://purl.org/dc/elements/1.1/"
   xmlns:cc="http://creativecommons.org/ns#"
   xmlns:rdf="http://www.w3.org/1999/02/22-rdf-syntax-ns#"
   xmlns:svg="http://www.w3.org/2000/svg"
   xmlns="http://www.w3.org/2000/svg"
   xmlns:sodipodi="http://sodipodi.sourceforge.net/DTD/sodipodi-0.dtd"
   xmlns:inkscape="http://www.inkscape.org/namespaces/inkscape"
   width="135.46666mm"
   height="135.46666mm"
   viewBox="0 0 135.46666 135.46666"
   version="1.1"
   id="svg855"
   inkscape:export-xdpi="96"
   inkscape:export-ydpi="96"
   inkscape:version="1.0.1 (1.0.1+r75)"
   sodipodi:docname="logo.svg">
  <defs
     id="defs849" />
  <sodipodi:namedview
     id="base"
     pagecolor="#ffffff"
     bordercolor="#666666"
     borderopacity="1.0"
     inkscape:pageopacity="0.0"
     inkscape:pageshadow="2"
     inkscape:zoom="0.35"
     inkscape:cx="144.95544"
     inkscape:cy="786.91292"
     inkscape:document-units="mm"
     inkscape:current-layer="layer1"
     inkscape:document-rotation="0"
     showgrid="false"
     fit-margin-top="0"
     fit-margin-left="0"
     fit-margin-right="0"
     fit-margin-bottom="0"
     inkscape:window-width="1920"
     inkscape:window-height="1025"
     inkscape:window-x="0"
     inkscape:window-y="27"
     inkscape:window-maximized="1" />
  <metadata
     id="metadata852">
    <rdf:RDF>
      <cc:Work
         rdf:about="">
        <dc:format>image/svg+xml</dc:format>
        <dc:type
           rdf:resource="http://purl.org/dc/dcmitype/StillImage" />
        <dc:title></dc:title>
      </cc:Work>
    </rdf:RDF>
  </metadata>
  <g
     inkscape:label="Ebene 1"
     inkscape:groupmode="layer"
     id="layer1"
     transform="translate(-17.724086,4.0317459)">
    <path
       style="fill:#0099df;fill-opacity:1;stroke-width:0.931958"
       d="m 17.979161,130.1682 c -0.99906,-2.90937 0.66715,-3.50148 9.85345,-3.50148 h 9.20493 V 94.040885 c 0,-32.235606 -0.02,-32.619612 -1.77874,-32.106027 -2.11924,0.619295 -4.51951,-1.729422 -3.82733,-3.745148 0.76608,-2.230868 51.147444,-45.805838 52.939343,-45.787328 0.878003,0.007 13.013602,9.483414 26.967986,21.054119 26.32329,21.826822 28.84768,24.042089 28.84768,25.315158 0,1.820836 -2.69356,3.574759 -4.7991,3.124959 l -2.25383,-0.481451 v 32.59351 32.593513 l 9.91819,0.27852 c 9.24731,0.2599 9.91816,0.41182 9.91816,2.24892 0,1.95094 -0.66305,1.97287 -67.248658,2.22283 -58.253891,0.21857 -67.314711,0.0603 -67.742081,-1.1843 z M 98.750605,111.39644 V 96.126164 H 85.08558 71.420551 v 15.270276 15.27028 H 85.08558 98.750605 Z M 149.4942,35.783919 c -0.18426,-0.677307 -0.78587,-3.396885 -1.3373,-6.043486 -3.67276,-17.628151 -17.53404,-29.17670119 -35.01967,-29.17670119 -5.73489,0 -6.45209,-0.20665 -6.45209,-1.85848001 0,-4.41445 15.52586,-3.26809 25.10072,1.85327001 6.04194,3.23170999 11.82141,9.03926999 15.59303,15.66880019 2.92711,5.14515 6.46479,17.121046 5.70827,19.324026 -0.61074,1.778574 -3.12846,1.941515 -3.59296,0.232719 z m -11.52256,-5.362827 c -2.88572,-11.099122 -12.88805,-19.02037 -24.01745,-19.02037 -3.21173,0 -3.82177,-0.29379 -3.57797,-1.7240702 0.23625,-1.38503 1.38485,-1.78199 5.84176,-2.0187 9.40925,-0.49977 18.55862,5.5373102 23.37316,15.4223472 2.87352,5.899756 3.53508,12.210701 1.3336,12.72127 -1.11325,0.258038 -1.82352,-1.035918 -2.9531,-5.380477 z m -11.31667,1.422123 c -1.72465,-4.554043 -4.47886,-6.93497 -8.76095,-7.573627 -2.96213,-0.441796 -3.71515,-0.953479 -3.71515,-2.524466 0,-1.695725 0.5302,-1.943489 3.80391,-1.777532 2.09219,0.106119 5.06761,1.015402 6.61213,2.02075 3.13496,2.040559 7.21041,9.383773 6.44502,11.612708 -0.85438,2.487975 -3.12113,1.579253 -4.38496,-1.757833 z"
       id="path1432"
       inkscape:export-xdpi="96"
       inkscape:export-ydpi="96" />
  </g>
</svg>
