<?xml version="1.0" encoding="UTF-8" standalone="no"?>
<svg
   xmlns:dc="http://purl.org/dc/elements/1.1/"
   xmlns:cc="http://creativecommons.org/ns#"
   xmlns:rdf="http://www.w3.org/1999/02/22-rdf-syntax-ns#"
   xmlns:svg="http://www.w3.org/2000/svg"
   xmlns="http://www.w3.org/2000/svg"
   xmlns:sodipodi="http://sodipodi.sourceforge.net/DTD/sodipodi-0.dtd"
   xmlns:inkscape="http://www.inkscape.org/namespaces/inkscape"
   width="43.007576mm"
   height="38.567108mm"
   viewBox="0 0 43.007576 38.567108"
   version="1.1"
   id="svg8"
   inkscape:version="1.0.1 (1.0.1+r75)"
   sodipodi:docname="logo_new.svg">
  <defs
     id="defs2" />
  <sodipodi:namedview
     id="base"
     pagecolor="#ffffff"
     bordercolor="#666666"
     borderopacity="1.0"
     inkscape:pageopacity="0.0"
     inkscape:pageshadow="2"
     inkscape:zoom="3.959798"
     inkscape:cx="106.54105"
     inkscape:cy="58.951052"
     inkscape:document-units="mm"
     inkscape:current-layer="layer1"
     inkscape:document-rotation="0"
     showgrid="false"
     inkscape:window-width="1920"
     inkscape:window-height="1025"
     inkscape:window-x="0"
     inkscape:window-y="27"
     inkscape:window-maximized="1"
     fit-margin-top="0"
     fit-margin-left="0"
     fit-margin-right="0"
     fit-margin-bottom="0" />
  <metadata
     id="metadata5">
    <rdf:RDF>
      <cc:Work
         rdf:about="">
        <dc:format>image/svg+xml</dc:format>
        <dc:type
           rdf:resource="http://purl.org/dc/dcmitype/StillImage" />
        <dc:title></dc:title>
      </cc:Work>
    </rdf:RDF>
  </metadata>
  <g
     inkscape:label="Ebene 1"
     inkscape:groupmode="layer"
     id="layer1"
     transform="translate(-58.25174,-103.46246)">
    <path
       id="path847"
       style="fill:#0099df;fill-opacity:1;stroke-width:0.999999"
       d="m 302.26953,391.04102 c -0.88988,-0.0319 -1.82397,0.36287 -3.19726,1.24414 -4.56794,2.93136 -77.47358,53.39658 -78.53321,55.5957 -0.81067,1.68246 -0.26452,2.63001 3.37891,5.86328 4.51272,4.00467 6.84376,4.70116 8.88867,2.65625 64.58748,-57.2815 72.46477,-57.62283 138.40039,0 2.06797,2.06797 4.26375,1.33267 8.26563,-2.76562 3.10752,-3.1824 3.69039,-4.34489 2.95312,-5.89454 -1.02641,-2.15731 -75.3594,-54.50316 -78.51758,-56.19335 -0.58556,-0.31339 -1.10474,-0.48673 -1.63867,-0.50586 z m -1.22265,27.57031 c -6.06055,0.0151 -13.70872,2.13832 -19.95704,5.53906 -6.87428,3.74147 -7.81748,4.98071 -5.63476,7.39258 1.68688,1.86399 1.82252,1.8405 6.38672,-1.05469 2.56531,-1.6272 6.8834,-3.61807 9.5957,-4.42383 9.88324,-2.93597 21.16122,-1.22994 29.65234,4.48633 l 4.41602,2.97461 2,-2.00781 2,-2.00586 -2.5,-1.99024 c -6.41726,-5.10757 -17.55865,-8.93211 -25.95898,-8.91015 z m 0.0293,12.62305 c -4.03631,0.003 -8.00999,0.77486 -11.26953,2.3164 -6.37104,3.01247 -7.55918,4.55352 -5.37695,6.96484 1.65535,1.82918 1.81674,1.81008 6.38672,-0.75781 3.61776,-2.03289 6.06059,-2.63672 10.68945,-2.63672 4.62886,0 7.07169,0.60187 10.68945,2.63477 4.56998,2.56789 4.73332,2.58699 6.38867,0.75781 2.23801,-2.47294 0.95965,-3.99503 -5.85937,-6.97851 -3.51281,-1.53697 -7.61213,-2.30342 -11.64844,-2.30078 z m 0.51172,12.02929 c -3.25955,-0.0307 -6.51379,0.83312 -8.92969,2.59961 -1.70233,1.24475 -1.69141,1.38983 0.21094,3.11133 1.72063,1.55713 2.4519,1.64086 5.31641,0.60742 2.7041,-0.97557 3.9707,-0.92264 6.82031,0.28711 3.24234,1.37647 3.64724,1.34405 5.5,-0.44922 1.98187,-1.9183 1.98305,-1.94827 0.0469,-3.38672 -2.43925,-1.81226 -5.70529,-2.73883 -8.96484,-2.76953 z m -60.60351,13.13672 c -4.79218,-0.42429 -6.17774,6.82227 -6.17774,6.82227 v 69.72851 h -14.64258 v 3.85352 h 162.30469 v -3.85352 h -13.38672 v -69.62305 c 0,0 1.03492,-6.92773 -6.87695,-6.92773 z m 60.5,6.39453 a 8.7627679,8.8796498 0 0 1 0.002,0 8.7627679,8.8796498 0 0 1 0.11523,0 8.7627679,8.8796498 0 0 1 8.77735,8.85742 l -8.76172,0.0234 8.76172,-0.002 a 8.7627679,8.8796498 0 0 1 -8.75586,8.88086 8.7627679,8.8796498 0 0 1 -8.76953,-8.86914 8.7627679,8.8796498 0 0 1 8.63086,-8.89063 z m -14.53321,40.50977 h 29.78516 v 29.64648 h -29.78516 z"
       transform="scale(0.26458333)" />
  </g>
</svg>
